<?xml version="1.0" encoding="utf-8"?>
<svg version="1.1" xmlns:xlink="http://www.w3.org/1999/xlink" width="26px" height="29px" xmlns="http://www.w3.org/2000/svg">
  <g transform="matrix(1 0 0 1 -370 -79 )">
    <path d="M 8.74162946428571 10.3746744791667  C 9.10435267857143 10.8466796875  9.28571428571429 11.4162326388889  9.28571428571429 12.0833333333333  C 9.28571428571429 12.7504340277778  9.10435267857143 13.3199869791667  8.74162946428571 13.7919921875  C 8.37890625 14.2639973958333  7.94122023809524 14.5  7.42857142857143 14.5  C 6.91592261904762 14.5  6.47823660714286 14.2639973958333  6.11551339285714 13.7919921875  C 5.75279017857143 13.3199869791667  5.57142857142857 12.7504340277778  5.57142857142857 12.0833333333333  C 5.57142857142857 11.4162326388889  5.75279017857143 10.8466796875  6.11551339285714 10.3746744791667  C 6.47823660714286 9.90266927083333  6.91592261904762 9.66666666666667  7.42857142857143 9.66666666666667  C 7.94122023809524 9.66666666666667  8.37890625 9.90266927083333  8.74162946428571 10.3746744791667  Z M 14.3130580357143 10.3746744791667  C 14.67578125 10.8466796875  14.8571428571429 11.4162326388889  14.8571428571429 12.0833333333333  C 14.8571428571429 12.7504340277778  14.67578125 13.3199869791667  14.3130580357143 13.7919921875  C 13.9503348214286 14.2639973958333  13.5126488095238 14.5  13 14.5  C 12.4873511904762 14.5  12.0496651785714 14.2639973958333  11.6869419642857 13.7919921875  C 11.32421875 13.3199869791667  11.1428571428571 12.7504340277778  11.1428571428571 12.0833333333333  C 11.1428571428571 11.4162326388889  11.32421875 10.8466796875  11.6869419642857 10.3746744791667  C 12.0496651785714 9.90266927083333  12.4873511904762 9.66666666666667  13 9.66666666666667  C 13.5126488095238 9.66666666666667  13.9503348214286 9.90266927083333  14.3130580357143 10.3746744791667  Z M 19.8844866071429 10.3746744791667  C 20.2472098214286 10.8466796875  20.4285714285714 11.4162326388889  20.4285714285714 12.0833333333333  C 20.4285714285714 12.7504340277778  20.2472098214286 13.3199869791667  19.8844866071429 13.7919921875  C 19.5217633928571 14.2639973958333  19.0840773809524 14.5  18.5714285714286 14.5  C 18.0587797619048 14.5  17.62109375 14.2639973958333  17.2583705357143 13.7919921875  C 16.8956473214286 13.3199869791667  16.7142857142857 12.7504340277778  16.7142857142857 12.0833333333333  C 16.7142857142857 11.4162326388889  16.8956473214286 10.8466796875  17.2583705357143 10.3746744791667  C 17.62109375 9.90266927083333  18.0587797619048 9.66666666666667  18.5714285714286 9.66666666666667  C 19.0840773809524 9.66666666666667  19.5217633928571 9.90266927083333  19.8844866071429 10.3746744791667  Z M 18.53515625 3.72884114583333  C 16.8182663690476 2.85405815972222  14.9732142857143 2.41666666666667  13 2.41666666666667  C 11.0267857142857 2.41666666666667  9.18173363095238 2.85405815972222  7.46484375 3.72884114583333  C 5.74795386904762 4.60362413194444  4.38411458333333 5.78363715277778  3.37332589285714 7.26888020833333  C 2.36253720238095 8.75412326388889  1.85714285714286 10.3589409722222  1.85714285714286 12.0833333333333  C 1.85714285714286 13.4930555555556  2.20293898809524 14.8366970486111  2.89453125 16.1142578125  C 3.58612351190476 17.3918185763889  4.56063988095238 18.4963107638889  5.81808035714286 19.427734375  L 7.08035714285714 20.3717447916667  L 6.68861607142857 22.1842447916667  C 6.45647321428571 23.3296440972222  6.11793154761905 24.412109375  5.67299107142857 25.431640625  C 7.14322916666667 24.638671875  8.47321428571429 23.5625  9.66294642857143 22.203125  L 10.2868303571429 21.4856770833333  L 11.1138392857143 21.5989583333333  C 11.78125 21.6996527777778  12.4099702380952 21.75  13 21.75  C 14.9732142857143 21.75  16.8182663690476 21.3126085069444  18.53515625 20.4378255208333  C 20.2520461309524 19.5630425347222  21.6158854166667 18.3830295138889  22.6266741071429 16.8977864583333  C 23.637462797619 15.4125434027778  24.1428571428571 13.8077256944444  24.1428571428571 12.0833333333333  C 24.1428571428571 10.3589409722222  23.637462797619 8.75412326388889  22.6266741071429 7.26888020833333  C 21.6158854166667 5.78363715277778  20.2520461309524 4.60362413194444  18.53515625 3.72884114583333  Z M 24.9698660714286 7.3916015625  C 25.6566220238095 8.88313802083333  26 10.4470486111111  26 12.0833333333333  C 26 14.2734375  25.4196428571429 16.2967664930556  24.2589285714286 18.1533203125  C 23.0982142857143 20.0098741319444  21.5215773809524 21.4762369791667  19.5290178571429 22.5524088541667  C 17.5364583333333 23.6285807291667  15.360119047619 24.1666666666667  13 24.1666666666667  C 12.3229166666667 24.1666666666667  11.6216517857143 24.1163194444444  10.8962053571429 24.015625  C 8.98102678571429 26.2183159722222  6.75632440476191 27.7413194444444  4.22209821428571 28.5846354166667  C 3.74813988095238 28.7608506944444  3.1968005952381 28.8993055555556  2.56808035714286 29  L 2.49553571428571 29  C 2.35044642857143 29  2.21986607142857 28.9339192708333  2.10379464285714 28.8017578125  C 1.98772321428571 28.6695963541667  1.91034226190476 28.4965277777778  1.87165178571429 28.2825520833333  L 1.87165178571429 28.263671875  C 1.84263392857143 28.2133246527778  1.84021577380952 28.1378038194444  1.86439732142857 28.037109375  C 1.88857886904762 27.9364149305556  1.89825148809524 27.8734809027778  1.89341517857143 27.8483072916667  C 1.88857886904762 27.8231336805556  1.91034226190476 27.7633463541667  1.95870535714286 27.6689453125  L 2.04575892857143 27.4990234375  C 2.04575892857143 27.4990234375  2.0796130952381 27.4455295138889  2.14732142857143 27.3385416666667  C 2.21502976190476 27.2315538194444  2.25372023809524 27.1749131944444  2.26339285714286 27.1686197916667  C 2.33110119047619 27.0679253472222  2.48102678571429 26.8508029513889  2.71316964285714 26.5172526041667  C 2.9453125 26.1837022569444  3.11216517857143 25.9445529513889  3.21372767857143 25.7998046875  C 3.31529017857143 25.6550564236111  3.46521577380952 25.4064670138889  3.66350446428571 25.0540364583333  C 3.86179315476191 24.7016059027778  4.01897321428571 24.3806423611111  4.13504464285714 24.0911458333333  C 4.25111607142857 23.8016493055556  4.38169642857143 23.4303385416667  4.52678571428571 22.9772135416667  C 4.671875 22.5240885416667  4.79761904761905 22.0457899305556  4.90401785714286 21.5423177083333  C 3.38541666666667 20.4220920138889  2.18843005952381 19.0375434027778  1.31305803571429 17.388671875  C 0.437686011904762 15.7398003472222  0 13.9713541666667  0 12.0833333333333  C 0 10.4470486111111  0.343377976190476 8.88313802083333  1.03013392857143 7.3916015625  C 1.71688988095238 5.90006510416667  2.640625 4.61306423611111  3.80133928571429 3.53059895833333  C 4.96205357142857 2.44813368055555  6.3452380952381 1.58908420138888  7.95089285714286 0.953450520833332  C 9.55654761904762 0.317816840277776  11.2395833333333 0  13 0  C 14.7604166666667 0  16.4434523809524 0.317816840277776  18.0491071428571 0.953450520833332  C 19.6547619047619 1.58908420138888  21.0379464285714 2.44813368055555  22.1986607142857 3.53059895833333  C 23.359375 4.61306423611111  24.2831101190476 5.90006510416667  24.9698660714286 7.3916015625  Z " fill-rule="nonzero" fill="#f2f2f2" stroke="none" transform="matrix(1 0 0 1 370 79 )" />
  </g>
</svg>