<?xml version="1.0" encoding="utf-8"?>
<svg version="1.1" xmlns:xlink="http://www.w3.org/1999/xlink" width="25px" height="29px" xmlns="http://www.w3.org/2000/svg">
  <g transform="matrix(1 0 0 1 -331 -79 )">
    <path d="M 15.4459635416667 17.9173177083333  C 16.259765625 16.9733072916667  16.6666666666667 15.8342013888889  16.6666666666667 14.5  C 16.6666666666667 13.1657986111111  16.259765625 12.0266927083333  15.4459635416667 11.0826822916667  C 14.6321614583333 10.138671875  13.6501736111111 9.66666666666667  12.5 9.66666666666667  C 11.3498263888889 9.66666666666667  10.3678385416667 10.138671875  9.55403645833333 11.0826822916667  C 8.740234375 12.0266927083333  8.33333333333333 13.1657986111111  8.33333333333333 14.5  C 8.33333333333333 15.8342013888889  8.740234375 16.9733072916667  9.55403645833333 17.9173177083333  C 10.3678385416667 18.861328125  11.3498263888889 19.3333333333333  12.5 19.3333333333333  C 13.6501736111111 19.3333333333333  14.6321614583333 18.861328125  15.4459635416667 17.9173177083333  Z M 24.8697916666667 11.9983723958333  C 24.9565972222222 12.1305338541667  25 12.2784288194444  25 12.4420572916667  L 25 16.6334635416667  C 25 16.7845052083333  24.9565972222222 16.9292534722222  24.8697916666667 17.0677083333333  C 24.7829861111111 17.2061631944444  24.6744791666667 17.2879774305556  24.5442708333333 17.3131510416667  L 21.533203125 17.841796875  C 21.3270399305556 18.521484375  21.1154513888889 19.0941840277778  20.8984375 19.5598958333333  C 21.2782118055556 20.1892361111111  21.8587239583333 21.0577256944444  22.6399739583333 22.1653645833333  C 22.7484809027778 22.31640625  22.802734375 22.4737413194444  22.802734375 22.6373697916667  C 22.802734375 22.8009982638889  22.75390625 22.9457465277778  22.65625 23.0716145833333  C 22.36328125 23.5373263888889  21.826171875 24.2170138888889  21.044921875 25.1106770833333  C 20.263671875 26.0043402777778  19.7536892361111 26.451171875  19.5149739583333 26.451171875  C 19.384765625 26.451171875  19.2437065972222 26.39453125  19.091796875 26.28125  L 16.845703125 24.2421875  C 16.3682725694444 24.5316840277778  15.8745659722222 24.7708333333333  15.3645833333333 24.9596354166667  C 15.1909722222222 26.6714409722222  15.0336371527778 27.8420138888889  14.892578125 28.4713541666667  C 14.8166232638889 28.8237847222222  14.6213107638889 29  14.306640625 29  L 10.693359375 29  C 10.5414496527778 29  10.4085286458333 28.9465060763889  10.2945963541667 28.8395182291667  C 10.1806640625 28.7325303819444  10.1182725694444 28.5972222222222  10.107421875 28.43359375  L 9.65169270833333 24.9596354166667  C 9.12000868055556 24.7582465277778  8.63172743055556 24.525390625  8.18684895833333 24.2610677083333  L 5.89192708333333 26.28125  C 5.78342013888889 26.39453125  5.64778645833333 26.451171875  5.48502604166667 26.451171875  C 5.33311631944444 26.451171875  5.19748263888889 26.3819444444444  5.078125 26.2434895833333  C 3.7109375 24.80859375  2.81575520833333 23.7513020833333  2.392578125 23.0716145833333  C 2.31662326388889 22.9457465277778  2.27864583333333 22.8009982638889  2.27864583333333 22.6373697916667  C 2.27864583333333 22.486328125  2.32204861111111 22.3415798611111  2.40885416666667 22.203125  C 2.57161458333333 21.9388020833333  2.84830729166667 21.5202907986111  3.23893229166667 20.9475911458333  C 3.62955729166667 20.3748914930556  3.92252604166667 19.9312065972222  4.11783854166667 19.6165364583333  C 3.82486979166667 18.9871961805556  3.60243055555556 18.3641493055556  3.45052083333333 17.7473958333333  L 0.472005208333333 17.2376302083333  C 0.330946180555556 17.2124565972222  0.217013888888889 17.1337890625  0.130208333333333 17.0016276041667  C 0.0434027777777778 16.8694661458333  0 16.7215711805556  0 16.5579427083333  L 0 12.3665364583333  C 0 12.2154947916667  0.0434027777777778 12.0707465277778  0.130208333333333 11.9322916666667  C 0.217013888888889 11.7938368055556  0.320095486111111 11.7120225694444  0.439453125 11.6868489583333  L 3.466796875 11.158203125  C 3.61870659722222 10.5792100694444  3.83029513888889 10.0002170138889  4.1015625 9.42122395833333  C 3.66753472222222 8.70377604166667  3.08702256944444 7.83528645833333  2.36002604166667 6.81575520833333  C 2.25151909722222 6.66471354166667  2.197265625 6.513671875  2.197265625 6.36263020833333  C 2.197265625 6.23676215277778  2.24609375 6.09201388888888  2.34375 5.92838541666667  C 2.62586805555556 5.47526041666667  3.16026475694444 4.79871961805555  3.94694010416667 3.89876302083333  C 4.73361545138889 2.99880642361111  5.24631076388889 2.548828125  5.48502604166667 2.548828125  C 5.62608506944444 2.548828125  5.76714409722222 2.61176215277778  5.908203125 2.73763020833333  L 8.154296875 4.7578125  C 8.63172743055556 4.46831597222222  9.12543402777778 4.22916666666667  9.63541666666667 4.04036458333333  C 9.80902777777778 2.32855902777778  9.96636284722222 1.15798611111111  10.107421875 0.528645833333332  C 10.1833767361111 0.176215277777776  10.3786892361111 0  10.693359375 0  L 14.306640625 0  C 14.4585503472222 0  14.5914713541667 0.0534939236111086  14.7054036458333 0.160481770833332  C 14.8193359375 0.267469618055553  14.8817274305556 0.402777777777776  14.892578125 0.56640625  L 15.3483072916667 4.04036458333333  C 15.8799913194444 4.24175347222222  16.3682725694444 4.474609375  16.8131510416667 4.73893229166667  L 19.1243489583333 2.71875  C 19.2220052083333 2.60546875  19.3522135416667 2.548828125  19.5149739583333 2.548828125  C 19.6560329861111 2.548828125  19.7916666666667 2.61176215277778  19.921875 2.73763020833333  C 21.3216145833333 4.23546006944444  22.216796875 5.30533854166667  22.607421875 5.947265625  C 22.6833767361111 6.04796006944444  22.7213541666667 6.18641493055555  22.7213541666667 6.36263020833333  C 22.7213541666667 6.513671875  22.6779513888889 6.65842013888888  22.5911458333333 6.796875  C 22.4283854166667 7.06119791666667  22.1516927083333 7.47970920138888  21.7610677083333 8.05240885416667  C 21.3704427083333 8.62510850694444  21.0774739583333 9.06879340277778  20.8821614583333 9.38346354166667  C 21.1642795138889 10.0128038194444  21.38671875 10.6295572916667  21.5494791666667 11.2337239583333  L 24.5279947916667 11.7623697916667  C 24.6690538194444 11.7875434027778  24.7829861111111 11.8662109375  24.8697916666667 11.9983723958333  Z " fill-rule="nonzero" fill="#f2f2f2" stroke="none" fill-opacity="0.666666666666667" transform="matrix(1 0 0 1 331 79 )" />
  </g>
</svg>